<svg width="25" height="24" viewBox="0 0 25 24" fill="none" xmlns="http://www.w3.org/2000/svg">
<g clip-path="url(#clip0_1_87)">
<path fill-rule="evenodd" clip-rule="evenodd" d="M23.4402 20.4497C23.2163 21.0186 22.6995 21.8195 21.9666 22.3838C21.5435 22.7098 21.0383 23.0213 20.3445 23.2268C19.6049 23.446 18.6938 23.5201 17.5599 23.5201H7.19194C6.05811 23.5201 5.14706 23.446 4.40732 23.2268C3.71345 23.0213 3.2084 22.7098 2.78519 22.3838C2.05241 21.8195 1.53554 21.0187 1.31157 20.4497C0.860535 19.3035 0.855957 18.003 0.855957 17.184V6.81598C0.855957 5.99703 0.860535 4.69647 1.31167 3.55029C1.53563 2.98141 2.05241 2.18041 2.78528 1.6162C3.2084 1.29033 3.71355 0.978831 4.40732 0.773272C5.14706 0.55407 6.05811 0.479996 7.19194 0.479996H17.56C18.6938 0.479996 19.6049 0.55407 20.3446 0.773272C21.0384 0.978831 21.5435 1.29042 21.9667 1.6162C22.6995 2.1805 23.2164 2.98141 23.4403 3.55029C23.8913 4.69647 23.896 5.99703 23.896 6.81598V17.1839C23.896 18.003 23.8913 19.3035 23.4402 20.4497Z" fill="url(#paint0_linear_1_87)"/>
<path d="M14.0461 13.723C13.7005 13.3583 13.0932 13.1245 12.3763 13.1245C11.6594 13.1245 11.0521 13.3583 10.7065 13.723C10.526 13.9134 10.4306 14.1085 10.4005 14.3865C10.3424 14.9248 10.3751 15.3882 10.4381 16.1293C10.4982 16.8355 10.6123 17.7771 10.7612 18.7361C10.8672 19.4187 10.9532 19.787 11.0316 20.0509C11.1587 20.4784 11.6336 20.8523 12.3763 20.8523C13.1189 20.8523 13.5939 20.4783 13.721 20.0509C13.7994 19.7871 13.8855 19.4188 13.9914 18.7361C14.1404 17.7771 14.2543 16.8356 14.3144 16.1293C14.3774 15.3882 14.4101 14.9247 14.352 14.3865C14.322 14.1085 14.2266 13.9135 14.0461 13.723ZM10.4926 10.4749C10.4926 11.5165 11.3368 12.3606 12.3782 12.3606C13.4195 12.3606 14.2637 11.5165 14.2637 10.4749C14.2637 9.43363 13.4195 8.58933 12.3782 8.58933C11.3368 8.58933 10.4926 9.43363 10.4926 10.4749ZM12.3548 3.03356C7.94474 3.04609 4.3313 6.62374 4.27663 11.0334C4.23241 14.6055 6.5126 17.6612 9.69671 18.7812C9.77407 18.8084 9.85254 18.7443 9.84027 18.6632C9.79861 18.3859 9.75924 18.1071 9.72298 17.8331C9.71017 17.7362 9.64845 17.6527 9.5589 17.6136C7.04229 16.5141 5.28483 13.99 5.31303 11.0664C5.35003 7.22943 8.48304 4.10145 12.32 4.07041C16.2424 4.03873 19.4435 7.22037 19.4435 11.1356C19.4435 14.03 17.6938 16.523 15.1967 17.6138C15.1073 17.6529 15.046 17.7367 15.0332 17.8333C14.997 18.1073 14.9576 18.3859 14.916 18.6631C14.9038 18.7441 14.9822 18.8083 15.0595 18.7811C18.2132 17.6718 20.4801 14.6637 20.4801 11.1356C20.4803 6.66036 16.833 3.02091 12.3548 3.03356ZM12.2085 6.75073C14.7083 6.65386 16.773 8.65955 16.773 11.1383C16.773 12.399 16.2388 13.5372 15.3851 14.3387C15.3128 14.4066 15.2739 14.5031 15.2795 14.6022C15.2965 14.9038 15.2903 15.1967 15.2702 15.5276C15.2648 15.6157 15.3637 15.6721 15.4366 15.6223C16.8682 14.644 17.8097 12.9992 17.8097 11.1382C17.8097 8.07419 15.2575 5.59493 12.1674 5.7147C9.29557 5.82595 6.99147 8.19377 6.95475 11.0675C6.93058 12.9576 7.8779 14.6319 9.3278 15.6226C9.40058 15.6723 9.49921 15.6157 9.49389 15.5278C9.47375 15.1967 9.46761 14.9037 9.48456 14.6022C9.49005 14.5032 9.45122 14.4068 9.37889 14.3389C8.4986 13.5124 7.95801 12.3279 7.99244 11.0205C8.05305 8.71943 9.90821 6.83983 12.2085 6.75073Z" fill="white"/>
</g>
<defs>
<linearGradient id="paint0_linear_1_87" x1="12.376" y1="0.479996" x2="12.376" y2="23.52" gradientUnits="userSpaceOnUse">
<stop stop-color="#F452FF"/>
<stop offset="1" stop-color="#832BC1"/>
</linearGradient>
<clipPath id="clip0_1_87">
<rect width="24" height="24" fill="white" transform="translate(0.375977)"/>
</clipPath>
</defs>
</svg>
