<svg width="26" height="19" viewBox="0 0 26 19" fill="none" xmlns="http://www.w3.org/2000/svg">
<g clip-path="url(#clip0_1_81)">
<path d="M24.834 3.53696C24.5499 2.47094 23.7131 1.63151 22.6502 1.34662C20.7241 0.828857 13.0001 0.828857 13.0001 0.828857C13.0001 0.828857 5.27622 0.828857 3.34998 1.34662C2.28728 1.63151 1.45028 2.47094 1.16625 3.53696C0.650116 5.46901 0.650116 9.50009 0.650116 9.50009C0.650116 9.50009 0.650116 13.5312 1.16625 15.4634C1.45028 16.5293 2.28728 17.3687 3.34998 17.6537C5.27622 18.1714 13.0001 18.1714 13.0001 18.1714C13.0001 18.1714 20.7241 18.1714 22.6502 17.6537C23.7131 17.3687 24.5499 16.5293 24.834 15.4634C25.3501 13.5312 25.3501 9.50009 25.3501 9.50009C25.3501 9.50009 25.3501 5.46901 24.834 3.53696Z" fill="#ED1D24"/>
<path d="M10.4734 13.1601L16.9291 9.50029L10.4734 5.84015V13.1601Z" fill="white"/>
</g>
<defs>
<clipPath id="clip0_1_81">
<rect width="26" height="19" fill="white"/>
</clipPath>
</defs>
</svg>
